<svg width="874" height="856" viewBox="0 0 874 856" fill="none" xmlns="http://www.w3.org/2000/svg">
<path d="M437 0C444.852 0 452.705 1.67188 459.874 4.84844L781.308 138.431C818.863 153.98 846.858 190.259 846.688 234.062C845.834 399.913 776.187 703.358 482.066 841.288C453.558 854.663 420.442 854.663 391.934 841.288C97.8129 703.358 28.166 399.913 27.3125 234.062C27.1418 190.259 55.1371 153.98 92.6918 138.431L414.297 4.84844C421.295 1.67188 429.148 0 437 0ZM437 111.681V743.817C672.57 631.969 735.901 384.698 737.438 236.403L437 111.681Z" fill="#FB8787" fill-opacity="0.19"/>
</svg>
