<svg width="54" height="54" viewBox="0 0 54 54" fill="none" xmlns="http://www.w3.org/2000/svg">
<path d="M19.5 3.43631C21.7788 2.53025 24.276 2 27 2C37.4548 2 44.57 9.81113 48.8127 16.701C50.9375 20.1517 52 21.8769 52 27C52 32.1231 50.9375 33.8484 48.8127 37.2991C44.57 44.1888 37.4548 52 27 52C16.5453 52 9.4299 44.1888 5.18722 37.2991C3.0624 33.8484 2 32.1231 2 27C2 21.8769 3.0624 20.1517 5.18722 16.701C6.3903 14.7473 7.82432 12.7195 9.5 10.8168" stroke="black" stroke-width="4" stroke-linecap="round"/>
<path d="M34.5 26.9986C34.5 32.1765 31.1422 36.3737 27 36.3737C22.8577 36.3737 19.5 32.1765 19.5 26.9986C19.5 21.8208 22.8577 17.6235 27 17.6235C31.1422 17.6235 34.5 21.8208 34.5 26.9986Z" stroke="black" stroke-width="4"/>
</svg>
